<svg width="24" height="22" viewBox="0 0 24 22" fill="none" xmlns="http://www.w3.org/2000/svg">
<path d="M23.1429 18.8571H0.857143C0.629814 18.8571 0.411797 18.9399 0.251051 19.0873C0.0903059 19.2346 0 19.4345 0 19.6429L0 21.2143C0 21.4227 0.0903059 21.6225 0.251051 21.7699C0.411797 21.9172 0.629814 22 0.857143 22H23.1429C23.3702 22 23.5882 21.9172 23.7489 21.7699C23.9097 21.6225 24 21.4227 24 21.2143V19.6429C24 19.4345 23.9097 19.2346 23.7489 19.0873C23.5882 18.9399 23.3702 18.8571 23.1429 18.8571ZM23.1429 12.5714H0.857143C0.629814 12.5714 0.411797 12.6542 0.251051 12.8016C0.0903059 12.9489 0 13.1488 0 13.3571L0 14.9286C0 15.137 0.0903059 15.3368 0.251051 15.4842C0.411797 15.6315 0.629814 15.7143 0.857143 15.7143H23.1429C23.3702 15.7143 23.5882 15.6315 23.7489 15.4842C23.9097 15.3368 24 15.137 24 14.9286V13.3571C24 13.1488 23.9097 12.9489 23.7489 12.8016C23.5882 12.6542 23.3702 12.5714 23.1429 12.5714ZM23.1429 6.28571H0.857143C0.629814 6.28571 0.411797 6.36849 0.251051 6.51584C0.0903059 6.66319 0 6.86304 0 7.07143L0 8.64286C0 8.85124 0.0903059 9.05109 0.251051 9.19844C0.411797 9.34579 0.629814 9.42857 0.857143 9.42857H23.1429C23.3702 9.42857 23.5882 9.34579 23.7489 9.19844C23.9097 9.05109 24 8.85124 24 8.64286V7.07143C24 6.86304 23.9097 6.66319 23.7489 6.51584C23.5882 6.36849 23.3702 6.28571 23.1429 6.28571ZM23.1429 0H0.857143C0.629814 0 0.411797 0.0827803 0.251051 0.23013C0.0903059 0.37748 0 0.57733 0 0.785714L0 2.35714C0 2.56553 0.0903059 2.76538 0.251051 2.91273C0.411797 3.06008 0.629814 3.14286 0.857143 3.14286H23.1429C23.3702 3.14286 23.5882 3.06008 23.7489 2.91273C23.9097 2.76538 24 2.56553 24 2.35714V0.785714C24 0.57733 23.9097 0.37748 23.7489 0.23013C23.5882 0.0827803 23.3702 0 23.1429 0Z" fill="#14133C"/>
</svg>
